<?xml version="1.0" encoding="UTF-8" standalone="no"?>
<!DOCTYPE svg PUBLIC "-//W3C//DTD SVG 1.1//EN" "http://www.w3.org/Graphics/SVG/1.1/DTD/svg11.dtd">
<svg version="1.1" xmlns="http://www.w3.org/2000/svg" xmlns:xlink="http://www.w3.org/1999/xlink" preserveAspectRatio="xMidYMid meet" viewBox="0 0 640 640" width="640" height="640"><defs><path d="M331.71 167.43C346.91 167.43 359.24 179.76 359.24 194.96C359.24 260.43 359.24 429.29 359.24 494.76C359.24 509.96 346.91 522.29 331.71 522.29C319.1 522.29 308.82 522.29 296.21 522.29C281 522.29 268.68 509.96 268.68 494.76C268.68 429.29 268.68 260.43 268.68 194.96C268.68 179.76 281 167.43 296.21 167.43C308.82 167.43 319.1 167.43 331.71 167.43Z" id="h2IZMn96v"></path><path d="M383.27 156.34L452.58 263.54L313.96 263.54L175.34 263.54L244.64 156.34L313.96 49.14L383.27 156.34Z" id="a6luRb5Aw7"></path></defs><g><g><g><use xlink:href="#h2IZMn96v" opacity="1" fill="#000000" fill-opacity="1"></use></g><g><use xlink:href="#a6luRb5Aw7" opacity="1" fill="{{color}}" fill-opacity="1"></use></g></g></g></svg>